<mxfile host="app.diagrams.net" modified="2024-05-28T11:38:30.879Z" agent="Mozilla/5.0 (Windows NT 10.0; Win64; x64) AppleWebKit/537.36 (KHTML, like Gecko) Chrome/125.0.0.0 Safari/537.36" etag="hNZHKVgAlTxGZCHAj3qR" version="24.3.1" type="device">
  <diagram name="Trang-1" id="U0BNx2-EQ3D5q49Zk3An">
    <mxGraphModel dx="2006" dy="1626" grid="1" gridSize="10" guides="1" tooltips="1" connect="1" arrows="1" fold="1" page="1" pageScale="1" pageWidth="827" pageHeight="1169" math="0" shadow="0">
      <root>
        <mxCell id="0" />
        <mxCell id="1" parent="0" />
        <mxCell id="FjeWPVe3WayuoKvcthpF-1" value="User" style="shape=umlActor;verticalLabelPosition=bottom;verticalAlign=top;html=1;" vertex="1" parent="1">
          <mxGeometry x="50" y="480" width="30" height="60" as="geometry" />
        </mxCell>
        <mxCell id="FjeWPVe3WayuoKvcthpF-2" value="Face Detect" style="swimlane;" vertex="1" parent="1">
          <mxGeometry x="190" y="300" width="380" height="470" as="geometry" />
        </mxCell>
        <mxCell id="FjeWPVe3WayuoKvcthpF-4" value="choosePhoto" style="ellipse;whiteSpace=wrap;html=1;align=center;" vertex="1" parent="FjeWPVe3WayuoKvcthpF-2">
          <mxGeometry x="50" y="80" width="100" height="40" as="geometry" />
        </mxCell>
        <mxCell id="FjeWPVe3WayuoKvcthpF-6" value="videoCapture" style="ellipse;whiteSpace=wrap;html=1;align=center;" vertex="1" parent="FjeWPVe3WayuoKvcthpF-2">
          <mxGeometry x="50" y="270" width="100" height="40" as="geometry" />
        </mxCell>
        <mxCell id="FjeWPVe3WayuoKvcthpF-7" value="imageCapture" style="ellipse;whiteSpace=wrap;html=1;align=center;" vertex="1" parent="FjeWPVe3WayuoKvcthpF-2">
          <mxGeometry x="50" y="170" width="100" height="40" as="geometry" />
        </mxCell>
        <mxCell id="FjeWPVe3WayuoKvcthpF-8" value="addFilters" style="ellipse;whiteSpace=wrap;html=1;align=center;" vertex="1" parent="FjeWPVe3WayuoKvcthpF-2">
          <mxGeometry x="50" y="370" width="100" height="40" as="geometry" />
        </mxCell>
        <mxCell id="FjeWPVe3WayuoKvcthpF-11" value="saveImage" style="ellipse;whiteSpace=wrap;html=1;align=center;" vertex="1" parent="FjeWPVe3WayuoKvcthpF-2">
          <mxGeometry x="250" y="210" width="100" height="40" as="geometry" />
        </mxCell>
        <mxCell id="FjeWPVe3WayuoKvcthpF-12" value="showDetectedImage" style="ellipse;whiteSpace=wrap;html=1;align=center;" vertex="1" parent="FjeWPVe3WayuoKvcthpF-2">
          <mxGeometry x="250" y="120" width="120" height="50" as="geometry" />
        </mxCell>
        <mxCell id="FjeWPVe3WayuoKvcthpF-14" value="&amp;lt;&amp;lt;include&amp;gt;&amp;gt;" style="endArrow=open;endSize=12;dashed=1;html=1;rounded=0;entryX=1;entryY=0.5;entryDx=0;entryDy=0;exitX=0;exitY=0;exitDx=0;exitDy=0;" edge="1" parent="FjeWPVe3WayuoKvcthpF-2" source="FjeWPVe3WayuoKvcthpF-12" target="FjeWPVe3WayuoKvcthpF-4">
          <mxGeometry width="160" relative="1" as="geometry">
            <mxPoint x="320" y="100" as="sourcePoint" />
            <mxPoint x="310" y="130" as="targetPoint" />
          </mxGeometry>
        </mxCell>
        <mxCell id="FjeWPVe3WayuoKvcthpF-15" value="&amp;lt;&amp;lt;include&amp;gt;&amp;gt;" style="endArrow=open;endSize=12;dashed=1;html=1;rounded=0;entryX=0.912;entryY=0.205;entryDx=0;entryDy=0;entryPerimeter=0;" edge="1" parent="FjeWPVe3WayuoKvcthpF-2" source="FjeWPVe3WayuoKvcthpF-12" target="FjeWPVe3WayuoKvcthpF-7">
          <mxGeometry width="160" relative="1" as="geometry">
            <mxPoint x="267" y="219" as="sourcePoint" />
            <mxPoint x="150" y="210" as="targetPoint" />
          </mxGeometry>
        </mxCell>
        <mxCell id="FjeWPVe3WayuoKvcthpF-16" value="&amp;lt;&amp;lt;include&amp;gt;&amp;gt;" style="endArrow=open;endSize=12;dashed=1;html=1;rounded=0;entryX=0.869;entryY=1.01;entryDx=0;entryDy=0;entryPerimeter=0;exitX=0;exitY=0.5;exitDx=0;exitDy=0;" edge="1" parent="FjeWPVe3WayuoKvcthpF-2" source="FjeWPVe3WayuoKvcthpF-11" target="FjeWPVe3WayuoKvcthpF-7">
          <mxGeometry width="160" relative="1" as="geometry">
            <mxPoint x="258.3000000000032" y="256.32" as="sourcePoint" />
            <mxPoint x="150.00000000000006" y="213.68000000000012" as="targetPoint" />
          </mxGeometry>
        </mxCell>
        <mxCell id="FjeWPVe3WayuoKvcthpF-17" value="&amp;lt;&amp;lt;extends&amp;gt;&amp;gt;" style="endArrow=block;endSize=16;endFill=0;html=1;rounded=0;exitX=0.503;exitY=-0.121;exitDx=0;exitDy=0;exitPerimeter=0;entryX=0.5;entryY=1;entryDx=0;entryDy=0;" edge="1" parent="FjeWPVe3WayuoKvcthpF-2" source="FjeWPVe3WayuoKvcthpF-8" target="FjeWPVe3WayuoKvcthpF-6">
          <mxGeometry width="160" relative="1" as="geometry">
            <mxPoint x="100" y="390" as="sourcePoint" />
            <mxPoint x="99.57" y="310" as="targetPoint" />
          </mxGeometry>
        </mxCell>
        <mxCell id="FjeWPVe3WayuoKvcthpF-19" value="showVideo" style="ellipse;whiteSpace=wrap;html=1;align=center;" vertex="1" parent="FjeWPVe3WayuoKvcthpF-2">
          <mxGeometry x="250" y="290" width="100" height="40" as="geometry" />
        </mxCell>
        <mxCell id="FjeWPVe3WayuoKvcthpF-21" value="&amp;lt;&amp;lt;include&amp;gt;&amp;gt;" style="endArrow=open;endSize=12;dashed=1;html=1;rounded=0;entryX=0.964;entryY=0.336;entryDx=0;entryDy=0;entryPerimeter=0;exitX=0;exitY=1;exitDx=0;exitDy=0;" edge="1" parent="FjeWPVe3WayuoKvcthpF-2" source="FjeWPVe3WayuoKvcthpF-19" target="FjeWPVe3WayuoKvcthpF-8">
          <mxGeometry width="160" relative="1" as="geometry">
            <mxPoint x="180" y="430" as="sourcePoint" />
            <mxPoint x="340" y="430" as="targetPoint" />
          </mxGeometry>
        </mxCell>
        <mxCell id="FjeWPVe3WayuoKvcthpF-23" value="&amp;lt;&amp;lt;include&amp;gt;&amp;gt;" style="endArrow=open;endSize=12;dashed=1;html=1;rounded=0;entryX=1;entryY=0;entryDx=0;entryDy=0;exitX=0;exitY=0;exitDx=0;exitDy=0;" edge="1" parent="FjeWPVe3WayuoKvcthpF-2" source="FjeWPVe3WayuoKvcthpF-19" target="FjeWPVe3WayuoKvcthpF-6">
          <mxGeometry width="160" relative="1" as="geometry">
            <mxPoint x="273" y="320" as="sourcePoint" />
            <mxPoint x="150" y="280" as="targetPoint" />
          </mxGeometry>
        </mxCell>
        <mxCell id="FjeWPVe3WayuoKvcthpF-26" value="chooseFilters" style="ellipse;whiteSpace=wrap;html=1;align=center;" vertex="1" parent="FjeWPVe3WayuoKvcthpF-2">
          <mxGeometry x="250" y="370" width="100" height="40" as="geometry" />
        </mxCell>
        <mxCell id="FjeWPVe3WayuoKvcthpF-27" value="&amp;lt;&amp;lt;include&amp;gt;&amp;gt;" style="endArrow=open;endSize=12;dashed=1;html=1;rounded=0;entryX=1;entryY=0.5;entryDx=0;entryDy=0;exitX=0;exitY=0.5;exitDx=0;exitDy=0;" edge="1" parent="FjeWPVe3WayuoKvcthpF-2" source="FjeWPVe3WayuoKvcthpF-26" target="FjeWPVe3WayuoKvcthpF-8">
          <mxGeometry width="160" relative="1" as="geometry">
            <mxPoint x="275" y="334" as="sourcePoint" />
            <mxPoint x="156" y="393" as="targetPoint" />
          </mxGeometry>
        </mxCell>
        <mxCell id="FjeWPVe3WayuoKvcthpF-29" value="" style="endArrow=none;html=1;rounded=0;" edge="1" parent="1">
          <mxGeometry width="50" height="50" relative="1" as="geometry">
            <mxPoint x="-770" y="-461" as="sourcePoint" />
            <mxPoint x="-680" y="-580" as="targetPoint" />
          </mxGeometry>
        </mxCell>
        <mxCell id="FjeWPVe3WayuoKvcthpF-30" value="" style="endArrow=none;html=1;rounded=0;" edge="1" parent="1">
          <mxGeometry width="50" height="50" relative="1" as="geometry">
            <mxPoint x="-760" y="-451" as="sourcePoint" />
            <mxPoint x="-670" y="-570" as="targetPoint" />
          </mxGeometry>
        </mxCell>
        <mxCell id="FjeWPVe3WayuoKvcthpF-32" value="" style="endArrow=none;html=1;rounded=0;exitX=0.5;exitY=0.5;exitDx=0;exitDy=0;exitPerimeter=0;entryX=-0.044;entryY=0.602;entryDx=0;entryDy=0;entryPerimeter=0;" edge="1" parent="1" source="FjeWPVe3WayuoKvcthpF-1" target="FjeWPVe3WayuoKvcthpF-4">
          <mxGeometry relative="1" as="geometry">
            <mxPoint x="80" y="509.63" as="sourcePoint" />
            <mxPoint x="240" y="509.63" as="targetPoint" />
          </mxGeometry>
        </mxCell>
        <mxCell id="FjeWPVe3WayuoKvcthpF-33" value="" style="endArrow=none;html=1;rounded=0;exitX=0.5;exitY=0.5;exitDx=0;exitDy=0;exitPerimeter=0;entryX=-0.044;entryY=0.593;entryDx=0;entryDy=0;entryPerimeter=0;" edge="1" parent="1" source="FjeWPVe3WayuoKvcthpF-1" target="FjeWPVe3WayuoKvcthpF-7">
          <mxGeometry relative="1" as="geometry">
            <mxPoint x="70" y="509.63" as="sourcePoint" />
            <mxPoint x="230" y="510" as="targetPoint" />
          </mxGeometry>
        </mxCell>
        <mxCell id="FjeWPVe3WayuoKvcthpF-34" value="" style="endArrow=none;html=1;rounded=0;exitX=0.5;exitY=0.5;exitDx=0;exitDy=0;exitPerimeter=0;entryX=0;entryY=0.5;entryDx=0;entryDy=0;" edge="1" parent="1" source="FjeWPVe3WayuoKvcthpF-1" target="FjeWPVe3WayuoKvcthpF-6">
          <mxGeometry relative="1" as="geometry">
            <mxPoint x="100" y="580" as="sourcePoint" />
            <mxPoint x="260" y="580" as="targetPoint" />
          </mxGeometry>
        </mxCell>
        <mxCell id="FjeWPVe3WayuoKvcthpF-35" value="" style="endArrow=none;html=1;rounded=0;exitX=0.5;exitY=0.5;exitDx=0;exitDy=0;exitPerimeter=0;entryX=0;entryY=0.5;entryDx=0;entryDy=0;" edge="1" parent="1" source="FjeWPVe3WayuoKvcthpF-1" target="FjeWPVe3WayuoKvcthpF-8">
          <mxGeometry relative="1" as="geometry">
            <mxPoint x="90" y="660" as="sourcePoint" />
            <mxPoint x="250" y="660" as="targetPoint" />
          </mxGeometry>
        </mxCell>
        <mxCell id="FjeWPVe3WayuoKvcthpF-36" value="" style="endArrow=none;html=1;rounded=0;exitX=1;exitY=0.5;exitDx=0;exitDy=0;entryX=0.5;entryY=0.5;entryDx=0;entryDy=0;entryPerimeter=0;" edge="1" parent="1" source="FjeWPVe3WayuoKvcthpF-12" target="FjeWPVe3WayuoKvcthpF-37">
          <mxGeometry relative="1" as="geometry">
            <mxPoint x="590" y="450" as="sourcePoint" />
            <mxPoint x="660" y="445" as="targetPoint" />
          </mxGeometry>
        </mxCell>
        <mxCell id="FjeWPVe3WayuoKvcthpF-37" value="detectedImage" style="shape=umlActor;verticalLabelPosition=bottom;verticalAlign=top;html=1;" vertex="1" parent="1">
          <mxGeometry x="670" y="450" width="30" height="60" as="geometry" />
        </mxCell>
        <mxCell id="FjeWPVe3WayuoKvcthpF-38" value="" style="endArrow=none;html=1;rounded=0;exitX=1;exitY=0.5;exitDx=0;exitDy=0;entryX=0.5;entryY=0.5;entryDx=0;entryDy=0;entryPerimeter=0;" edge="1" parent="1" source="FjeWPVe3WayuoKvcthpF-19" target="FjeWPVe3WayuoKvcthpF-41">
          <mxGeometry relative="1" as="geometry">
            <mxPoint x="550" y="610" as="sourcePoint" />
            <mxPoint x="640" y="640" as="targetPoint" />
          </mxGeometry>
        </mxCell>
        <mxCell id="FjeWPVe3WayuoKvcthpF-39" value="" style="endArrow=none;html=1;rounded=0;exitX=1;exitY=0.5;exitDx=0;exitDy=0;entryX=0.5;entryY=0.5;entryDx=0;entryDy=0;entryPerimeter=0;" edge="1" parent="1" source="FjeWPVe3WayuoKvcthpF-26" target="FjeWPVe3WayuoKvcthpF-41">
          <mxGeometry relative="1" as="geometry">
            <mxPoint x="550" y="690" as="sourcePoint" />
            <mxPoint x="640" y="670" as="targetPoint" />
          </mxGeometry>
        </mxCell>
        <mxCell id="FjeWPVe3WayuoKvcthpF-40" value="" style="endArrow=none;html=1;rounded=0;exitX=1;exitY=0.5;exitDx=0;exitDy=0;entryX=0.5;entryY=0.5;entryDx=0;entryDy=0;entryPerimeter=0;" edge="1" parent="1" source="FjeWPVe3WayuoKvcthpF-11" target="FjeWPVe3WayuoKvcthpF-37">
          <mxGeometry relative="1" as="geometry">
            <mxPoint x="545" y="535" as="sourcePoint" />
            <mxPoint x="670" y="530" as="targetPoint" />
          </mxGeometry>
        </mxCell>
        <mxCell id="FjeWPVe3WayuoKvcthpF-41" value="real-timeDetect" style="shape=umlActor;verticalLabelPosition=bottom;verticalAlign=top;html=1;" vertex="1" parent="1">
          <mxGeometry x="660" y="620" width="30" height="60" as="geometry" />
        </mxCell>
      </root>
    </mxGraphModel>
  </diagram>
</mxfile>
